<svg version="1.1" xmlns="http://www.w3.org/2000/svg" xmlns:xlink="http://www.w3.org/1999/xlink" x="0px" y="0px" viewbox="0 0 282.5 135">
<g>
	<path d="M25.4,73.9c-3.3,0-6.4-0.7-9.2-2c-2.8-1.4-5.3-3.3-7.4-5.8c-2.1-2.5-3.8-5.4-5-8.9C2.7,53.8,2.1,50,2.1,45.9v-0.2
		c0-4.3,0.6-8.2,1.8-11.7c1.2-3.5,2.9-6.5,5-9.1c2.1-2.5,4.5-4.5,7.3-5.8c2.8-1.4,5.8-2,9-2c4.1,0,7.4,0.8,9.9,2.3
		c2.5,1.5,4.6,3.3,6.4,5.2V0h22.7v72.6H41.5l0.1-6.7c-0.9,1-1.9,2-2.9,2.9c-1,1-2.2,1.8-3.4,2.5c-1.3,0.7-2.7,1.3-4.3,1.8
		C29.3,73.7,27.5,73.9,25.4,73.9z M33,55.3c2.6,0,4.7-0.9,6.4-2.8c1.7-1.9,2.6-4.2,2.6-7v-0.2c0-1.3-0.2-2.6-0.7-3.8
		c-0.5-1.2-1.1-2.2-1.9-3.1c-0.8-0.9-1.7-1.6-2.9-2.1c-1.1-0.5-2.3-0.7-3.6-0.7c-2.6,0-4.7,0.9-6.4,2.8c-1.7,1.9-2.6,4.2-2.6,7v0.2
		c0,2.8,0.9,5.1,2.6,7C28.2,54.4,30.4,55.3,33,55.3z"/>
	<path d="M99.1,73.9c-4.4,0-8.5-0.7-12.2-2s-6.8-3.3-9.5-5.7c-2.6-2.5-4.6-5.4-6.1-8.9c-1.4-3.4-2.1-7.3-2.1-11.5v-0.2
		c0-4,0.7-7.8,2.1-11.3c1.4-3.5,3.3-6.5,5.8-9.1c2.5-2.6,5.4-4.6,8.8-6c3.4-1.5,7.2-2.2,11.3-2.2c4.8,0,9,0.8,12.6,2.3
		c3.5,1.6,6.5,3.7,8.8,6.4c2.3,2.7,4,5.9,5.2,9.6c1.1,3.6,1.7,7.5,1.7,11.6c0,0.6,0,1.2,0,1.9c0,0.7,0,1.3-0.1,1.9H90.4
		c0.8,2.4,2.1,4.2,3.9,5.4c1.8,1.2,3.9,1.8,6.4,1.8c2.1,0,4-0.5,5.7-1.4c1.8-0.9,3.5-2.3,5.3-4.2l12.1,9.7c-2.7,3.5-6.1,6.4-10,8.6
		C109.9,72.8,105,73.9,99.1,73.9z M104.8,40.8c-0.3-2.6-1.1-4.6-2.5-6c-1.4-1.4-3.1-2.1-5.1-2.1c-1.9,0-3.5,0.7-4.8,2.2
		c-1.3,1.5-2.1,3.4-2.4,6H104.8z"/>
	<path d="M127,18.3h23.7l8.8,27.3l8.9-27.3h23.4l-22,54.7H149L127,18.3z"/>
	<path d="M195.1,18.3h22.7v7.6c0.9-1.1,1.9-2.2,3-3.3c1.1-1.1,2.4-2,3.8-2.8c1.4-0.8,2.9-1.5,4.5-2c1.6-0.5,3.4-0.7,5.3-0.7
		c5.8,0,10.3,1.8,13.6,5.3c3.3,3.5,5,8.4,5,14.5v35.8h-22.7V44.1c0-2.3-0.6-4.1-1.8-5.4c-1.2-1.3-2.6-1.9-4.3-1.9s-3.2,0.6-4.5,1.9
		c-1.3,1.3-1.9,3.1-1.9,5.4v28.6h-22.7V18.3z"/>
	<path d="M257.4,34.7c3.2-0.4,5.8-1.3,7.5-2.8c1.8-1.5,2.6-3.5,2.6-6h-9.1V3h23.1v18.2c0,4.1-0.6,7.5-1.7,10.2
		c-1.1,2.7-2.7,4.9-4.7,6.6c-2,1.7-4.3,2.9-7.1,3.6c-2.7,0.8-5.7,1.2-9,1.3L257.4,34.7z"/>
	<path d="M15.4,124.2c-2.9,0-5.7-0.4-8.3-1.1c-2.6-0.7-5-1.8-7.1-3.2l4.2-7.1c1.8,1.1,3.7,2,5.6,2.5c1.9,0.6,3.8,0.8,5.5,0.8
		c1.2,0,1.8-0.3,1.8-1V115c0-0.3-0.2-0.6-0.7-0.8c-0.4-0.2-1.4-0.6-2.9-1c-1.9-0.5-3.6-1-5.1-1.5c-1.5-0.5-2.8-1.2-3.9-1.9
		c-1.1-0.8-1.9-1.7-2.5-2.8c-0.6-1.1-0.9-2.4-0.9-3.9V103c0-1.7,0.3-3.1,0.9-4.4c0.6-1.3,1.5-2.4,2.7-3.2c1.2-0.9,2.5-1.5,4.2-2
		c1.6-0.5,3.4-0.7,5.3-0.7c2.5,0,4.9,0.3,7.2,0.9c2.3,0.6,4.4,1.5,6.2,2.6l-4,7.4c-1.6-0.9-3.3-1.6-5-2.1c-1.7-0.5-3.3-0.7-4.5-0.7
		c-1.2,0-1.8,0.3-1.8,0.9v0.1c0,0.3,0.2,0.6,0.7,0.8c0.5,0.3,1.5,0.6,3,0.9c1.9,0.5,3.6,1,5.1,1.5c1.5,0.5,2.8,1.2,3.8,2
		c1,0.8,1.8,1.7,2.4,2.8c0.6,1.1,0.8,2.4,0.8,3.9v0.1c0,3.3-1.1,5.9-3.4,7.7C22.7,123.3,19.5,124.2,15.4,124.2z"/>
	<path d="M31.1,93.5h12.6v3.7c0.5-0.6,1.1-1.1,1.6-1.6c0.6-0.5,1.2-1,1.9-1.4c0.7-0.4,1.5-0.7,2.4-1c0.9-0.3,1.9-0.4,3-0.4
		c1.8,0,3.5,0.4,5.1,1.1c1.6,0.8,2.9,1.8,4.1,3.2c1.2,1.4,2.1,3,2.7,4.9c0.7,1.9,1,4,1,6.3v0.1c0,2.4-0.3,4.6-1,6.5
		c-0.7,1.9-1.6,3.6-2.7,5c-1.2,1.4-2.5,2.5-4.1,3.2c-1.6,0.8-3.2,1.1-5,1.1c-2.3,0-4.1-0.4-5.5-1.3c-1.4-0.8-2.6-1.8-3.5-2.9v12.2
		H31.1V93.5z M48.3,113.9c1.4,0,2.6-0.5,3.6-1.5c0.9-1,1.4-2.3,1.4-3.9v-0.1c0-1.5-0.5-2.8-1.4-3.9c-0.9-1-2.1-1.5-3.6-1.5
		c-1.4,0-2.6,0.5-3.6,1.5c-0.9,1-1.4,2.3-1.4,3.9v0.1c0,0.7,0.1,1.4,0.4,2.1c0.3,0.7,0.6,1.2,1,1.7c0.4,0.5,1,0.9,1.6,1.2
		C46.9,113.8,47.6,113.9,48.3,113.9z"/>
	<path d="M68.2,83.3h13v8h-13V83.3z M68.4,93.5h12.6v30.1H68.4V93.5z"/>
	<path d="M84.7,93.5h12.6v6.1c0.8-2,2-3.6,3.5-4.8c1.5-1.2,3.4-1.8,5.9-1.7v13.3h-1.3c-2.6,0-4.7,0.8-6,2.3c-1.4,1.5-2.1,4-2.1,7.3
		v7.7H84.7V93.5z"/>
	<path d="M117.5,124.2c-1.4,0-2.8-0.2-4-0.6s-2.3-1-3.1-1.8c-0.9-0.8-1.6-1.8-2-2.9c-0.5-1.1-0.7-2.5-0.7-4v-0.1c0-3,1-5.3,3.1-6.9
		c2.1-1.6,4.8-2.4,8.4-2.4c0.6,0,1.3,0,2,0.1c0.7,0.1,1.4,0.1,2,0.2c0.6,0.1,1.2,0.2,1.8,0.4c0.6,0.1,1,0.3,1.3,0.4v-0.5
		c0-1.4-0.4-2.5-1.3-3.2c-0.9-0.8-2.3-1.1-4.2-1.1c-1.5,0-3,0.2-4.3,0.5c-1.3,0.3-2.7,0.7-4,1.2l-2.2-8.3c1.8-0.7,3.7-1.2,5.7-1.6
		c2-0.4,4.4-0.6,7-0.6c3.1,0,5.6,0.3,7.7,1c2,0.6,3.7,1.6,5,2.9c1.1,1.1,1.9,2.5,2.4,4c0.5,1.5,0.7,3.4,0.7,5.6v17.1h-12.5v-3
		c-1.1,1.1-2.3,2-3.7,2.7C121,123.9,119.4,124.2,117.5,124.2z M122.5,117c1.1,0,2-0.4,2.8-1.2c0.7-0.8,1.1-2,1.1-3.4v-1.3
		c-0.4-0.1-0.8-0.3-1.3-0.4c-0.5-0.1-1-0.1-1.5-0.1c-1.2,0-2.2,0.3-2.9,1c-0.7,0.6-1,1.4-1,2.4v0.1c0,0.9,0.3,1.6,0.8,2.1
		C121,116.8,121.6,117,122.5,117z"/>
	<path d="M155.9,124.2c-3.7,0-6.6-0.9-8.5-2.6c-1.9-1.7-2.9-4.5-2.9-8.1v-10.4H141v-9.6h3.5v-7.5H157v7.5h6.9v9.6H157v7.6
		c0,1.1,0.3,1.9,0.8,2.4c0.5,0.5,1.3,0.7,2.3,0.7c1.2,0,2.4-0.3,3.8-0.9v9.6c-1,0.5-2.2,0.9-3.6,1.2
		C158.9,124,157.4,124.2,155.9,124.2z"/>
	<path d="M166.6,83.3h13v8h-13V83.3z M166.8,93.5h12.6v30.1h-12.6V93.5z"/>
	<path d="M199.1,124.2c-2.5,0-4.7-0.4-6.8-1.2c-2.1-0.8-3.9-2-5.3-3.4s-2.6-3.1-3.5-5c-0.8-1.9-1.2-3.9-1.2-6v-0.1
		c0-2.1,0.4-4.1,1.3-6.1c0.8-1.9,2-3.6,3.5-5c1.5-1.4,3.3-2.6,5.3-3.4c2.1-0.8,4.4-1.3,6.9-1.3c2.5,0,4.7,0.4,6.8,1.2
		c2.1,0.8,3.9,2,5.3,3.4c1.5,1.4,2.6,3.1,3.5,5s1.2,3.9,1.2,6v0.1c0,2.1-0.4,4.1-1.3,6.1c-0.8,1.9-2,3.6-3.5,5
		c-1.5,1.4-3.3,2.6-5.4,3.4S201.6,124.2,199.1,124.2z M199.2,113.8c1.4,0,2.6-0.5,3.5-1.5c0.9-1,1.4-2.2,1.4-3.7v-0.1
		c0-1.5-0.5-2.7-1.4-3.8c-1-1-2.1-1.5-3.5-1.5c-1.4,0-2.6,0.5-3.5,1.5c-0.9,1-1.4,2.2-1.4,3.7v0.1c0,1.5,0.5,2.7,1.4,3.8
		C196.6,113.3,197.8,113.8,199.2,113.8z"/>
	<path d="M218.9,93.5h12.6v4.2c0.5-0.6,1-1.2,1.6-1.8c0.6-0.6,1.3-1.1,2.1-1.6c0.8-0.5,1.6-0.8,2.5-1.1s1.9-0.4,2.9-0.4
		c3.2,0,5.7,1,7.5,2.9c1.8,1.9,2.7,4.6,2.7,8v19.8h-12.6v-15.8c0-1.3-0.3-2.3-1-3s-1.4-1.1-2.4-1.1s-1.8,0.4-2.5,1.1
		c-0.7,0.7-1.1,1.7-1.1,3v15.8h-12.6V93.5z"/>
</g>
</svg>
